<svg width="135" height="135" viewBox="0 0 135 135" fill="none" xmlns="http://www.w3.org/2000/svg">
<circle cx="67.5" cy="67.5" r="67.5" fill="#212021"/>
<path fill-rule="evenodd" clip-rule="evenodd" d="M27.2561 91.0042L38.2043 65.8054L47.5885 42L41.3324 42.0677L31.9643 65.8054L21 91.0042H27.2561Z" fill="#C26047"/>
<path fill-rule="evenodd" clip-rule="evenodd" d="M94.2274 56.5609C94.2272 54.4655 95.9539 53.6594 98.8138 53.6592C102.915 53.6589 108.095 54.8943 112.196 57.097L112.195 44.4706C107.717 42.6979 103.292 41.9997 98.8131 42C87.859 42.0007 80.5747 47.6965 80.5753 57.2066C80.5763 72.0358 101.081 69.6703 101.082 76.0641C101.082 78.5356 98.9235 79.3417 95.9017 79.3419C91.4229 79.3422 85.7029 77.5158 81.1701 75.0446L81.1709 87.8321C86.1894 89.9809 91.2618 90.894 95.9024 90.8937C107.126 90.8929 114.842 85.3583 114.842 75.7408C114.787 59.7295 94.2278 62.5785 94.2274 56.5609Z" fill="#C26047"/>
<path fill-rule="evenodd" clip-rule="evenodd" d="M59.7177 56.6413C59.7176 54.544 61.4443 53.7373 64.3042 53.7371C68.4052 53.7368 73.5855 54.9733 77.6867 57.1778L77.6858 44.5404C73.207 42.7661 68.7822 42.0673 64.3034 42.0676C53.3494 42.0684 46.0651 47.7692 46.0657 57.2875C46.0667 72.1298 66.5716 69.7622 66.572 76.1616C66.5722 78.6353 64.4138 79.4421 61.392 79.4423C56.9132 79.4426 51.1933 77.6146 46.6604 75.1412L46.6613 87.9399C51.6798 90.0906 56.7521 91.0045 61.3928 91.0042C72.6166 91.0034 80.3326 85.4639 80.332 75.838C80.277 59.8127 59.7181 62.6642 59.7177 56.6413Z" fill="#C26047"/>
</svg>
